#define cup_width 64
#define cup_height 68
static const unsigned char cup_bits[] = {
  0x00, 0x00, 0x00, 0x00, 0x00, 0x00, 0x00, 0x00, 0x00, 0x00, 0x00, 0x00, 
  0x00, 0x00, 0x00, 0x00, 0x00, 0x00, 0x00, 0x00, 0x00, 0x00, 0x00, 0x00, 
  0x00, 0x00, 0x00, 0x00, 0x04, 0x00, 0x00, 0x00, 0x00, 0x00, 0x00, 0x00, 
  0x06, 0x00, 0x00, 0x00, 0x00, 0x00, 0x00, 0x00, 0x03, 0x00, 0x00, 0x00, 
  0x00, 0x00, 0x00, 0x00, 0x02, 0x00, 0x00, 0x00, 0x00, 0x00, 0x00, 0x00, 
  0x03, 0x00, 0x00, 0x00, 0x00, 0x00, 0x00, 0x40, 0x07, 0x00, 0x00, 0x00, 
  0x00, 0x00, 0x00, 0x40, 0x06, 0x00, 0x00, 0x00, 0x00, 0x00, 0x00, 0x40, 
  0x0E, 0x00, 0x00, 0x00, 0x00, 0x00, 0x00, 0x80, 0x0C, 0x00, 0x00, 0x00, 
  0x00, 0x00, 0x00, 0x80, 0x0C, 0x00, 0x00, 0x00, 0x00, 0x00, 0x00, 0xC0, 
  0x0C, 0x00, 0x00, 0x00, 0x00, 0x00, 0x00, 0xC0, 0x0C, 0x00, 0x00, 0x00, 
  0x00, 0x00, 0x00, 0x80, 0x0D, 0x00, 0x00, 0x00, 0x00, 0x00, 0x00, 0xC0, 
  0x04, 0x00, 0x00, 0x00, 0x00, 0x00, 0x00, 0xC0, 0x06, 0x00, 0x00, 0x00, 
  0x00, 0x00, 0x00, 0xE0, 0x02, 0x00, 0x00, 0x00, 0x00, 0x00, 0x00, 0x70, 
  0x02, 0x00, 0x00, 0x00, 0x00, 0x00, 0x00, 0x70, 0x00, 0x00, 0x00, 0x00, 
  0x00, 0x00, 0x00, 0x30, 0x00, 0x00, 0x00, 0x00, 0x00, 0x00, 0x00, 0x30, 
  0x00, 0x00, 0x00, 0x00, 0x00, 0x00, 0x00, 0x10, 0x00, 0x00, 0x00, 0x00, 
  0x00, 0x00, 0x00, 0x10, 0x00, 0x00, 0x00, 0x00, 0x00, 0x00, 0x00, 0x30, 
  0x00, 0x00, 0x00, 0x00, 0x00, 0x00, 0x00, 0x00, 0x00, 0x00, 0x00, 0x00, 
  0x00, 0x00, 0xC0, 0xFF, 0x1F, 0x00, 0x00, 0x00, 0x00, 0x00, 0xFC, 0xFF, 
  0xFF, 0x01, 0x00, 0x00, 0x00, 0x80, 0x3F, 0x00, 0xE0, 0x07, 0x00, 0x00, 
  0x00, 0xC0, 0x03, 0x00, 0x00, 0x1E, 0x00, 0x00, 0x00, 0xF0, 0x00, 0x00, 
  0x00, 0x3C, 0x00, 0x00, 0x00, 0x38, 0x00, 0x00, 0x00, 0x70, 0x00, 0x00, 
  0x00, 0x38, 0x00, 0x00, 0x00, 0xE0, 0x00, 0x00, 0x00, 0x38, 0x00, 0x00, 
  0x00, 0x60, 0x00, 0x00, 0x00, 0x18, 0x00, 0x00, 0x00, 0xE0, 0x00, 0x00, 
  0x00, 0x38, 0x00, 0x00, 0x00, 0x70, 0x00, 0x00, 0x00, 0xF0, 0x00, 0x00, 
  0x00, 0xB8, 0x3F, 0x00, 0x00, 0xE0, 0x03, 0x00, 0x00, 0x9E, 0x7F, 0x00, 
  0x00, 0x88, 0x1F, 0x00, 0xC0, 0xCF, 0xFB, 0x00, 0x00, 0x08, 0xFC, 0xEF, 
  0xFF, 0xC1, 0xE0, 0x00, 0x00, 0x08, 0xE0, 0xFF, 0x1F, 0xE0, 0xE0, 0x00, 
  0x00, 0x10, 0x00, 0x00, 0x00, 0x60, 0xE0, 0x00, 0x00, 0x18, 0x00, 0x00, 
  0x00, 0x60, 0x60, 0x00, 0x00, 0x30, 0x00, 0x00, 0x00, 0x30, 0x70, 0x00, 
  0x00, 0x3C, 0x00, 0x00, 0x00, 0xF0, 0x38, 0x00, 0x00, 0x77, 0x00, 0x00, 
  0x00, 0xB8, 0x3F, 0x00, 0x80, 0x73, 0x00, 0x00, 0x00, 0x38, 0x0F, 0x00, 
  0xC0, 0xE0, 0x00, 0x00, 0x00, 0xDC, 0x0F, 0x00, 0x60, 0xE0, 0x00, 0x00, 
  0x00, 0xFE, 0x3B, 0x00, 0x30, 0xC0, 0x03, 0x00, 0x00, 0xFE, 0x31, 0x00, 
  0x30, 0xC0, 0x03, 0x00, 0x00, 0x7F, 0x60, 0x00, 0x18, 0x88, 0x07, 0x00, 
  0xC0, 0x0F, 0x60, 0x00, 0x38, 0x80, 0x0F, 0x00, 0xC0, 0x03, 0x61, 0x00, 
  0x18, 0x00, 0x3F, 0x00, 0xF0, 0x03, 0x60, 0x00, 0x30, 0x10, 0xFE, 0x00, 
  0xFC, 0x81, 0x70, 0x00, 0x30, 0x20, 0xFC, 0x9B, 0xFF, 0x40, 0x30, 0x00, 
  0x70, 0x40, 0xF8, 0xFF, 0x3F, 0x20, 0x38, 0x00, 0xE0, 0x80, 0xE0, 0xFF, 
  0x1F, 0x10, 0x1C, 0x00, 0xC0, 0x03, 0x81, 0xFF, 0x07, 0x04, 0x0F, 0x00, 
  0x80, 0x0F, 0x00, 0x00, 0x00, 0xC0, 0x07, 0x00, 0x00, 0x1E, 0x00, 0x00, 
  0x00, 0xE0, 0x01, 0x00, 0x00, 0xF8, 0x00, 0x00, 0x00, 0x7E, 0x00, 0x00, 
  0x00, 0xE0, 0x1F, 0x00, 0xC0, 0x1F, 0x00, 0x00, 0x00, 0x00, 0xFF, 0xEF, 
  0xFF, 0x03, 0x00, 0x00, 0x00, 0x00, 0xE0, 0xFF, 0x1F, 0x00, 0x00, 0x00, 
  0x00, 0x00, 0x00, 0x00, 0x00, 0x00, 0x00, 0x00, 0x00, 0x00, 0x00, 0x00, 
  0x00, 0x00, 0x00, 0x00, };
